<svg width="20" height="20" viewBox="0 0 20 20" fill="none" xmlns="http://www.w3.org/2000/svg">
<g clip-path="url(#clip0_6859_17)">
<path d="M19.2303 11.7647L16.0481 13.1618L10.7908 10.0082L16.0481 6.85458L19.2303 8.25163C19.2834 8.27614 19.3406 8.28431 19.3937 8.28431C19.5489 8.28431 19.7001 8.19444 19.7695 8.03922C19.8594 7.83088 19.7654 7.58987 19.5612 7.5L16.91 6.33578L18.7564 5.22876C18.9484 5.11438 19.0138 4.86111 18.8953 4.66912C18.7769 4.47712 18.5277 4.41177 18.3357 4.53023L16.4525 5.66177L16.7589 2.79412C16.7834 2.56944 16.62 2.36928 16.3953 2.34477C16.1707 2.32026 15.9705 2.48366 15.946 2.70833L15.5743 6.18873L10.4109 9.28922V3.16585L13.2377 1.16013C13.4215 1.02941 13.4664 0.776144 13.3357 0.59232C13.205 0.408497 12.9517 0.363562 12.7679 0.494281L10.4149 2.16503V0.408497C10.4149 0.183824 10.2311 0 10.0064 0C9.78177 0 9.59795 0.183824 9.59795 0.408497V2.14461L7.24092 0.490196C7.0571 0.359477 6.79975 0.404412 6.67311 0.588235C6.5424 0.772059 6.58733 1.02941 6.77115 1.15605L9.59387 3.13726V9.28105L4.39779 6.16013L4.06282 2.70016C4.0424 2.47549 3.84223 2.31209 3.61756 2.33252C3.39289 2.35294 3.22949 2.5531 3.24991 2.77778L3.52769 5.63317L1.66903 4.51797C1.47704 4.40359 1.22377 4.46487 1.10939 4.65686C0.99501 4.84886 1.05628 5.10212 1.24828 5.2165L3.08651 6.31944L0.44354 7.49183C0.239291 7.5817 0.145337 7.82271 0.235206 8.03105C0.304651 8.18219 0.451709 8.27614 0.606938 8.27614C0.664128 8.27614 0.717232 8.26389 0.770337 8.23938L3.93619 6.83415L9.20579 9.99592L3.93619 13.1577L0.770337 11.7525C0.562004 11.6626 0.320991 11.7525 0.231121 11.9608C0.141252 12.165 0.231121 12.4101 0.439455 12.5L3.08243 13.6724L1.24419 14.7753C1.0522 14.8897 0.98684 15.143 1.1053 15.335C1.18292 15.4616 1.31772 15.5351 1.45661 15.5351C1.53014 15.5351 1.59959 15.5147 1.66494 15.4779L3.5236 14.3627L3.24583 17.2181C3.2254 17.4428 3.3888 17.643 3.61347 17.6634C3.62573 17.6634 3.64207 17.6634 3.65432 17.6634C3.86266 17.6634 4.03831 17.5041 4.05874 17.2958L4.3937 13.8358L9.58978 10.7149V17.0384L6.77932 18.8317C6.58733 18.9542 6.53423 19.2075 6.65269 19.3954C6.7303 19.518 6.86102 19.5833 6.99583 19.5833C7.06936 19.5833 7.14697 19.5629 7.21641 19.518L9.5857 18.0065V19.5915C9.5857 19.8162 9.76952 20 9.99419 20C10.2189 20 10.4027 19.8162 10.4027 19.5915V17.9902L12.772 19.518C12.9599 19.6405 13.2131 19.5874 13.3357 19.3954C13.4582 19.2034 13.4051 18.9542 13.2131 18.8317L10.4068 17.0343V10.7271L15.5702 13.8276L15.9419 17.308C15.9623 17.5163 16.1421 17.6716 16.3463 17.6716C16.3627 17.6716 16.3749 17.6716 16.3913 17.6675C16.6159 17.643 16.7793 17.4428 16.7548 17.2181L16.4484 14.3505L18.3316 15.482C18.397 15.5229 18.4705 15.5392 18.5399 15.5392C18.6788 15.5392 18.8136 15.4698 18.8913 15.3391C19.0056 15.1471 18.9444 14.8938 18.7524 14.7794L16.906 13.6724L19.5571 12.5082C19.7654 12.4183 19.8594 12.1773 19.7654 11.969C19.6756 11.7688 19.4346 11.6748 19.2303 11.7647Z" fill="white"/>
</g>
<defs>
<clipPath id="clip0_6859_17">
<rect width="20" height="20" fill="white"/>
</clipPath>
</defs>
</svg>
