<svg width="1197" height="477" viewBox="0 0 1197 477" fill="none" xmlns="http://www.w3.org/2000/svg">
<path d="M1196 1C1182.66 1 1170.08 1.01336 1157.54 5.32416C1142.67 10.4341 1125.81 19.0911 1120.25 32.4949C1116.55 41.4189 1114.44 50.6764 1113.21 60.0401C1111.47 73.2938 1114.02 88.2857 1107.92 100.83C1103.58 109.748 1093.1 118.473 1083.74 123.915C1075.95 128.447 1065.56 130.681 1056.55 132.768C1025.43 139.977 980.085 146.546 977.142 180.027C976.111 191.76 978.46 201.214 989.313 209.309C999.088 216.601 1010.61 222.42 1021.55 228.342C1037.99 237.238 1053.95 246.424 1070.02 255.791C1073.44 258.382 1075.9 260.853 1077.65 264.461C1080.03 269.362 1081.04 274.017 1080.97 279.244C1080.8 293.788 1073.02 304.452 1058.26 312.442C1046.36 318.884 1032.02 321.571 1018.01 321.975C999.297 322.515 983.067 317.532 965.217 313.701C930.694 306.293 895.227 301.262 859.716 298.856C846.287 297.946 832.855 297.046 819.42 296.201C811.487 295.701 803.664 295.315 795.324 295.315C783.972 295.315 772.188 296.789 760.834 298.856C745.28 301.689 734.251 315.624 722.928 325.508C715.379 332.097 706.002 341.424 696.344 346.135C681.575 350.253 679.216 346.135 654.499 340.745C618.242 331.816 605.304 358.079 577.037 367.09C543.46 377.792 508.387 386.15 472.146 381.288C450.532 378.388 404.892 366.127 418.663 340.123C423.575 330.848 435.599 323.62 446.753 321.39C465.933 317.554 490.074 317.683 508.168 326.129C526.91 334.878 519.963 348.237 518.059 356.33C511.735 376.572 492.154 390.304 466.936 402.516C429.522 420.636 428.538 419.401 397.523 428.872C376.75 432.847 357.49 435.393 331.556 435.461C305.623 435.53 252.754 435.583 212.864 433.615C18.2516 424.01 7.61873 476.731 1 475.992" stroke="#5AC1F0" stroke-width="2" stroke-linecap="round" stroke-dasharray="10 10"/>
</svg>
