<svg width="320" height="120" viewBox="0 0 320 120" fill="none" xmlns="http://www.w3.org/2000/svg">
<path d="M319 1C315.439 1 312.08 1.00332 308.732 2.07421C304.764 3.34363 300.264 5.4942 298.78 8.82399C297.792 11.0409 297.228 13.3407 296.9 15.6668C296.436 18.9593 297.116 22.6836 295.487 25.7999C294.329 28.0153 291.531 30.1828 289.033 31.5347C286.954 32.6604 284.179 33.2156 281.775 33.7339C273.468 35.5247 261.363 37.1567 260.577 45.4741C260.302 48.3888 260.929 50.7373 263.826 52.7483C266.435 54.5597 269.51 56.0055 272.431 57.4765C276.819 59.6865 281.081 61.9684 285.37 64.2956C286.283 64.9392 286.94 65.553 287.408 66.4494C288.043 67.6669 288.311 68.8231 288.294 70.1218C288.247 73.7348 286.172 76.3838 282.232 78.3687C279.055 79.969 275.226 80.6366 271.486 80.737C266.491 80.8711 262.158 79.6333 257.393 78.6816C248.178 76.8411 238.71 75.5915 229.23 74.9938C225.646 74.7678 222.06 74.5442 218.474 74.334C216.356 74.2099 214.268 74.1141 212.041 74.1141C209.011 74.1141 205.865 74.4801 202.834 74.9938C198.682 75.6975 195.738 79.1593 192.715 81.6145C190.7 83.2514 188.197 85.5686 185.619 86.7387C181.677 87.7618 181.047 86.7387 174.449 85.3997C164.77 83.1816 161.316 89.706 153.77 91.9443C144.807 94.603 135.445 96.6793 125.77 95.4715C120.001 94.7511 107.817 91.7052 111.493 85.2453C112.805 82.9411 116.014 81.1456 118.992 80.5915C124.112 79.6386 130.556 79.6708 135.386 81.7689C140.389 83.9423 138.535 87.2611 138.027 89.2715C136.338 94.3001 131.111 97.7112 124.38 100.745C114.392 105.246 114.129 104.94 105.85 107.293C100.305 108.28 95.1635 108.912 88.2406 108.929C81.3177 108.946 67.2045 108.96 56.5562 108.471C4.60524 106.085 1.76684 119.181 0 118.998" stroke="#5AC1F0" stroke-opacity="0.8" stroke-width="2" stroke-linecap="round" stroke-dasharray="10 10"/>
</svg>
