<svg width="518" height="437" viewBox="0 0 518 437" fill="none" xmlns="http://www.w3.org/2000/svg">
<path d="M518 1C512.228 1 506.784 1.01223 501.359 4.96002C494.928 9.63966 487.634 17.5676 485.229 29.8427C483.628 38.0152 482.714 46.4932 482.183 55.0683C481.43 67.2059 482.533 80.9353 479.893 92.4235C478.016 100.59 473.481 108.581 469.433 113.564C466.063 117.714 461.567 119.761 457.67 121.671C444.207 128.273 424.588 134.29 423.314 164.951C422.868 175.696 423.885 184.354 428.58 191.767C432.809 198.445 437.792 203.775 442.526 209.197C449.638 217.344 456.544 225.757 463.496 234.335C464.976 236.708 466.041 238.971 466.799 242.275C467.828 246.763 468.263 251.026 468.236 255.813C468.159 269.132 464.796 278.898 458.41 286.215C453.261 292.114 447.056 294.576 440.994 294.946C432.899 295.44 425.877 290.877 418.155 287.369C403.219 280.584 387.875 275.977 372.511 273.774C366.702 272.94 360.89 272.116 355.078 271.342C351.646 270.884 348.261 270.531 344.653 270.531C339.742 270.531 334.644 271.88 329.732 273.774C323.002 276.368 318.231 289.129 313.332 298.181C310.066 304.215 306.009 312.757 301.831 317.071C295.441 320.842 294.421 317.071 283.727 312.135C268.041 303.958 262.444 328.01 250.214 336.261C235.688 346.062 220.514 353.716 204.835 349.264C195.484 346.608 175.738 335.379 181.696 311.565C183.821 303.071 189.023 296.452 193.849 294.409C202.147 290.897 212.591 291.015 220.419 298.75C228.528 306.762 225.522 318.996 224.698 326.408C221.962 344.945 213.491 357.52 202.581 368.705C186.394 385.298 185.968 384.167 172.55 392.841C163.563 396.481 155.23 398.812 144.011 398.875C132.791 398.938 109.918 398.987 92.66 397.184C8.46366 388.388 3.8635 436.669 1 435.993" stroke="#5AC1F0" stroke-width="2" stroke-linecap="round" stroke-dasharray="10 10"/>
</svg>
